<svg width="141" height="41" viewBox="0 0 141 41" fill="none" xmlns="http://www.w3.org/2000/svg">
<path d="M46.726 29V25.92H47.716C48.376 25.92 48.904 25.7367 49.3 25.37C49.7107 24.9887 49.916 24.49 49.916 23.874V12.61H53.326V23.72C53.326 24.776 53.0987 25.7 52.644 26.492C52.1893 27.284 51.5367 27.9 50.686 28.34C49.85 28.78 48.86 29 47.716 29H46.726ZM61.8947 29.264C60.7067 29.264 59.6213 28.9927 58.6387 28.45C57.6707 27.9073 56.8933 27.1667 56.3067 26.228C55.7347 25.2747 55.4487 24.1967 55.4487 22.994C55.4487 21.7767 55.7347 20.6987 56.3067 19.76C56.8933 18.8213 57.6707 18.0807 58.6387 17.538C59.6213 16.9953 60.7067 16.724 61.8947 16.724C63.0827 16.724 64.1607 16.9953 65.1287 17.538C66.0967 18.0807 66.8667 18.8213 67.4387 19.76C68.0253 20.6987 68.3187 21.7767 68.3187 22.994C68.3187 24.1967 68.0253 25.2747 67.4387 26.228C66.8667 27.1667 66.0967 27.9073 65.1287 28.45C64.1607 28.9927 63.0827 29.264 61.8947 29.264ZM61.8947 26.294C62.496 26.294 63.0167 26.1547 63.4567 25.876C63.9113 25.5973 64.2633 25.2087 64.5127 24.71C64.7767 24.2113 64.9087 23.6393 64.9087 22.994C64.9087 22.3487 64.7767 21.784 64.5127 21.3C64.2633 20.8013 63.9113 20.4127 63.4567 20.134C63.0167 19.8407 62.496 19.694 61.8947 19.694C61.2933 19.694 60.7653 19.8407 60.3107 20.134C59.856 20.4127 59.4967 20.8013 59.2327 21.3C58.9833 21.784 58.8587 22.3487 58.8587 22.994C58.8587 23.6393 58.9833 24.2113 59.2327 24.71C59.4967 25.2087 59.856 25.5973 60.3107 25.876C60.7653 26.1547 61.2933 26.294 61.8947 26.294ZM70.2627 29V12.346H73.5627V19.364L73.1667 18.836C73.4454 18.1173 73.8927 17.5893 74.5087 17.252C75.1394 16.9 75.8727 16.724 76.7087 16.724C77.6181 16.724 78.4101 16.9147 79.0847 17.296C79.7741 17.6773 80.3094 18.2127 80.6907 18.902C81.0721 19.5767 81.2627 20.3687 81.2627 21.278V29H77.9627V21.982C77.9627 21.5127 77.8674 21.1093 77.6767 20.772C77.5007 20.4347 77.2441 20.1707 76.9067 19.98C76.5841 19.7893 76.2027 19.694 75.7627 19.694C75.3374 19.694 74.9561 19.7893 74.6187 19.98C74.2814 20.1707 74.0174 20.4347 73.8267 20.772C73.6507 21.1093 73.5627 21.5127 73.5627 21.982V29H70.2627ZM83.4327 29V16.988H86.5127V19.364L86.3367 18.836C86.6153 18.1173 87.0627 17.5893 87.6787 17.252C88.3093 16.9 89.0427 16.724 89.8787 16.724C90.788 16.724 91.58 16.9147 92.2547 17.296C92.944 17.6773 93.4793 18.2127 93.8607 18.902C94.242 19.5767 94.4327 20.3687 94.4327 21.278V29H91.1327V21.982C91.1327 21.5127 91.0373 21.1093 90.8467 20.772C90.6707 20.4347 90.414 20.1707 90.0767 19.98C89.754 19.7893 89.3727 19.694 88.9327 19.694C88.5073 19.694 88.126 19.7893 87.7887 19.98C87.4513 20.1707 87.1873 20.4347 86.9967 20.772C86.8207 21.1093 86.7327 21.5127 86.7327 21.982V29H83.4327ZM96.6026 29V16.988H99.6826V19.87L99.4626 19.452C99.7266 18.44 100.159 17.758 100.761 17.406C101.377 17.0393 102.103 16.856 102.939 16.856H103.643V19.716H102.609C101.802 19.716 101.149 19.9653 100.651 20.464C100.152 20.948 99.9026 21.6373 99.9026 22.532V29H96.6026ZM110.875 29.264C109.599 29.264 108.492 28.9853 107.553 28.428C106.614 27.856 105.888 27.0933 105.375 26.14C104.862 25.1867 104.605 24.1307 104.605 22.972C104.605 21.7693 104.869 20.6987 105.397 19.76C105.94 18.8213 106.666 18.0807 107.575 17.538C108.484 16.9953 109.511 16.724 110.655 16.724C111.608 16.724 112.452 16.878 113.185 17.186C113.918 17.4793 114.534 17.8973 115.033 18.44C115.546 18.9827 115.935 19.6133 116.199 20.332C116.463 21.036 116.595 21.806 116.595 22.642C116.595 22.8767 116.58 23.1113 116.551 23.346C116.536 23.566 116.5 23.7567 116.441 23.918H107.443V21.498H114.571L113.009 22.642C113.156 22.0113 113.148 21.454 112.987 20.97C112.826 20.4713 112.54 20.0827 112.129 19.804C111.733 19.5107 111.242 19.364 110.655 19.364C110.083 19.364 109.592 19.5033 109.181 19.782C108.77 20.0607 108.462 20.4713 108.257 21.014C108.052 21.5567 107.971 22.2167 108.015 22.994C107.956 23.6687 108.037 24.2627 108.257 24.776C108.477 25.2893 108.814 25.6927 109.269 25.986C109.724 26.2647 110.274 26.404 110.919 26.404C111.506 26.404 112.004 26.2867 112.415 26.052C112.84 25.8173 113.17 25.4947 113.405 25.084L116.045 26.338C115.81 26.9247 115.436 27.438 114.923 27.878C114.424 28.318 113.83 28.6627 113.141 28.912C112.452 29.1467 111.696 29.264 110.875 29.264ZM120.408 33.884C120.056 33.884 119.711 33.8547 119.374 33.796C119.051 33.7373 118.765 33.642 118.516 33.51V30.804C118.721 30.8627 118.963 30.914 119.242 30.958C119.521 31.002 119.777 31.024 120.012 31.024C120.657 31.024 121.119 30.87 121.398 30.562C121.677 30.254 121.904 29.902 122.08 29.506L122.894 27.636L122.85 30.386L117.57 16.988H121.112L124.61 26.514H123.29L126.788 16.988H130.33L125.182 30.122C124.859 30.958 124.463 31.6547 123.994 32.212C123.525 32.7693 122.989 33.1873 122.388 33.466C121.801 33.7447 121.141 33.884 120.408 33.884ZM132.52 29V25.7H135.82V29H132.52Z" fill="#232E35"/>
<circle cx="20" cy="20" r="20" fill="#232E35"/>
<path d="M10.726 29V25.92H11.716C12.376 25.92 12.904 25.7367 13.3 25.37C13.7107 24.9887 13.916 24.49 13.916 23.874V12.61H17.326V23.72C17.326 24.776 17.0987 25.7 16.644 26.492C16.1893 27.284 15.5367 27.9 14.686 28.34C13.85 28.78 12.86 29 11.716 29H10.726ZM20.1747 29V12.61H23.5847V26.03H30.5147V29H20.1747Z" fill="white"/>
</svg>
